<svg xmlns="http://www.w3.org/2000/svg" viewBox="0 0 1400 1050">
    <defs>
        <style>.cls-1{fill:#ffffff;}.cls-2{fill:#45e9ff;}.cls-3{fill:#ff30d6;}.cls-4{fill:#452cd6;}</style>
    </defs>
    <title>retro-offset-rock-paper-scissors-icons</title>

    <g id="Icons">
        <path class="cls-2" d="M1208.76,340a29.74,29.74,0,0,0-11.52-9.24,29.66,29.66,0,0,1,2.36,16.46c-5.59,41.75-9.83,71.57-12.93,93.34-9.36,65.81-9.36,65.81-9.36,130.6h0c0,31.46-11.89,59.94-33.49,80.19a106.33,106.33,0,0,1-72.54,28.52q-3.42,0-6.85-.23a102.27,102.27,0,0,1-58.51-23.27c.92,1.11,1.85,2.21,2.81,3.29,18.49,20.73,43.56,33.11,70.57,34.86,2.29.15,4.57.22,6.86.22a106.35,106.35,0,0,0,72.54-28.52c21.59-20.24,33.49-48.72,33.49-80.19h0c0-64.78,0-64.78,9.36-130.59,3.09-21.77,7.34-51.59,12.93-93.35A29.59,29.59,0,0,0,1208.76,340Z"/>
        <path class="cls-2" d="M1077.66,455.86a31.24,31.24,0,0,1,4.93,16.89V514h37.54a57.21,57.21,0,0,1,48.49,26.9c.26-37.38,1.68-47.35,9.39-101.55,3.09-21.76,7.33-51.56,12.93-93.3a21.1,21.1,0,0,0-6.06-17.91,29.83,29.83,0,0,0-29.46,25.65l-16,109.44-4.1-28.16-6.45,44.27a4.38,4.38,0,0,1-8.66,0l-20.19-138.75a20.94,20.94,0,0,0-6.06-12,29.79,29.79,0,0,0-29.47,34Z"/>
        <path class="cls-2" d="M997,552.91a22.73,22.73,0,0,0,22.51-19.81c0-.25,0-.5,0-.74a17.61,17.61,0,0,1,.19-2.63V497.18a22.61,22.61,0,0,0-7.19-16.54l-.62,0a31.47,31.47,0,0,0-31.43,31.43V545.7A22.61,22.61,0,0,0,997,552.91Z"/>
        <path class="cls-2" d="M1137.84,645c19.81-18.57,30.72-44.78,30.72-73.8a48.48,48.48,0,0,0-48.43-48.43h-82.22a9.63,9.63,0,0,0-9.43,7.73c0,1-.07,2-.17,3a34.47,34.47,0,0,0,34.41,33.3h41.51v8.75a40.85,40.85,0,0,0-40.8,40.8V629.7h-8.75V616.34a49.53,49.53,0,0,1,21.46-40.8h-13.42a43.26,43.26,0,0,1-40.08-27.1,31.37,31.37,0,0,1-42.15,8.49v28.5a111.56,111.56,0,0,0,4,29.66,102.17,102.17,0,0,0,15.9,23.88c17,19,39.89,30.35,64.6,31.95A97.62,97.62,0,0,0,1137.84,645Z"/>
        <path class="cls-2" d="M1124.59,448.34l6.36-43.63-7.35-50.5a29.83,29.83,0,0,0-17.23-23,30.06,30.06,0,0,1,2.36,8.13Z"/>
        <path class="cls-2" d="M1073.84,514V472.75a22.61,22.61,0,0,0-7.19-16.55H1066a31.47,31.47,0,0,0-31.44,31.43v2.69a32.19,32.19,0,0,0-6.12-5V516.6a18.22,18.22,0,0,1,9.43-2.61Z"/>
        <path class="cls-3" d="M1197.24,330.77a30.26,30.26,0,0,0-3.35-5.64,29.82,29.82,0,0,0-53.35,13.78l-9.59,65.8-6.36,43.63-15.86-109A29.85,29.85,0,0,0,1075,314a29.84,29.84,0,0,0-25.38,33.69l13.5,96.05a31.44,31.44,0,0,0-11.91-2.38h-.09a31.47,31.47,0,0,0-31.43,31.44v2.69a31.42,31.42,0,0,0-54.12,21.74v73.38a111.33,111.33,0,0,0,28.25,74.23,108.8,108.8,0,0,0,12.06,11.59,102.27,102.27,0,0,0,58.51,23.27q3.43.23,6.85.23a106.33,106.33,0,0,0,72.54-28.52c21.6-20.25,33.49-48.73,33.49-80.19h0c0-64.79,0-64.79,9.36-130.6,3.1-21.77,7.34-51.59,12.93-93.34A29.66,29.66,0,0,0,1197.24,330.77Zm-168.76,142a22.71,22.71,0,0,1,22.68-22.69h.06a22.68,22.68,0,0,1,11.6,3.23,23.15,23.15,0,0,1,3.83,2.91,22.61,22.61,0,0,1,7.19,16.55V514h-35.93a18.22,18.22,0,0,0-9.43,2.61V472.75Zm-54.12,24.43a22.69,22.69,0,0,1,45.37,0v32.55a17.61,17.61,0,0,0-.19,2.63c0,.24,0,.49,0,.74a22.69,22.69,0,0,1-45.19-2.88ZM1137.84,645A97.62,97.62,0,0,1,1065,670.92c-24.71-1.6-47.65-12.95-64.6-31.95a102.87,102.87,0,0,1-26-68.41V552a31.62,31.62,0,0,0,6.13,5,31.37,31.37,0,0,0,42.15-8.49,43.26,43.26,0,0,0,40.08,27.1h13.42a49.53,49.53,0,0,0-21.46,40.8V629.7h8.75V616.34a40.85,40.85,0,0,1,40.8-40.8v-8.75h-41.51a34.47,34.47,0,0,1-34.41-33.3c.1-1,.16-2,.17-3a9.63,9.63,0,0,1,9.43-7.73h82.22a48.48,48.48,0,0,1,48.43,48.43C1168.56,600.19,1157.65,626.4,1137.84,645ZM1190.94,346c-5.6,41.74-9.84,71.54-12.93,93.3-7.71,54.2-9.13,64.17-9.39,101.55a57.21,57.21,0,0,0-48.49-26.9h-37.54V472.75a31.24,31.24,0,0,0-4.93-16.89,31.69,31.69,0,0,0-4.77-5.8l-14.56-103.64a21.07,21.07,0,0,1,41.74-5.84l20.19,138.75a4.38,4.38,0,0,0,8.66,0l6.45-44.27,13.83-94.91a21.08,21.08,0,0,1,41.74,5.89Z"/>
        <path class="cls-4" d="M1120.26,479.33a4.38,4.38,0,0,0,8.66,0l6.45-44.27L1131,404.71l-6.36,43.63-15.86-109a30.06,30.06,0,0,0-2.36-8.13,29.48,29.48,0,0,0-12.36-2.66,20.94,20.94,0,0,1,6.06,12Z"/>
        <path class="cls-4" d="M1197.24,330.77a30,30,0,0,0-12.36-2.64,21.1,21.1,0,0,1,6.06,17.91c-5.6,41.74-9.84,71.54-12.93,93.3-7.71,54.2-9.13,64.17-9.39,101.55a57.21,57.21,0,0,0-48.49-26.9h-37.54V472.75a31.24,31.24,0,0,0-4.93-16.89l.38,2.71a31.32,31.32,0,0,0-11.39-2.37,22.61,22.61,0,0,1,7.19,16.55V514h-35.93a18.22,18.22,0,0,0-9.43,2.61V485.35a31.22,31.22,0,0,0-15.94-4.71,22.61,22.61,0,0,1,7.19,16.54v32.55a17.61,17.61,0,0,0-.19,2.63c0,.24,0,.49,0,.74a22.66,22.66,0,0,1-39.06,12.6v11.23a31.37,31.37,0,0,0,42.15-8.49,43.26,43.26,0,0,0,40.08,27.1h13.42a49.53,49.53,0,0,0-21.46,40.8V629.7h8.75V616.34a40.85,40.85,0,0,1,40.8-40.8v-8.75h-41.51a34.47,34.47,0,0,1-34.41-33.3c.1-1,.16-2,.17-3a9.63,9.63,0,0,1,9.43-7.73h82.22a48.48,48.48,0,0,1,48.43,48.43c0,29-10.91,55.23-30.72,73.8A97.62,97.62,0,0,1,1065,670.92c-24.71-1.6-47.65-12.95-64.6-31.95a102.17,102.17,0,0,1-15.9-23.88,111.07,111.07,0,0,0,21.43,41.29,102.27,102.27,0,0,0,58.51,23.27q3.43.23,6.85.23a106.33,106.33,0,0,0,72.54-28.52c21.6-20.25,33.49-48.73,33.49-80.19h0c0-64.79,0-64.79,9.36-130.6,3.1-21.77,7.34-51.59,12.93-93.34A29.66,29.66,0,0,0,1197.24,330.77Z"/>
        <path class="cls-3" d="M856.46,527.76a46,46,0,0,0-64.21-.89l-2,1.85v12l8-7.47h0a37.31,37.31,0,0,1,52,.72,9.25,9.25,0,0,1,1.31,1.64,41.39,41.39,0,0,1,10.24,4.91A18.14,18.14,0,0,0,856.46,527.76Z"/>
        <path class="cls-3" d="M750.23,357.51a29.34,29.34,0,0,0-15.75,4.56,29.24,29.24,0,0,1,4,7.87,20.5,20.5,0,0,1,29.72,7,23.93,23.93,0,0,1,10.81,4.1C775.88,367.39,764.37,357.51,750.23,357.51Z"/>
        <path class="cls-3" d="M698.18,331.63a31.25,31.25,0,0,0-26.43,14.59,28.78,28.78,0,0,0-4.3-5.74,29.25,29.25,0,0,0-21.32-8.85,29.59,29.59,0,0,0-29.56,29.56V384a26.35,26.35,0,0,0-17.7-6.81c-14.83,0-26.45,12-26.45,27.34V585.72a98.73,98.73,0,0,0,54,88.14,94.61,94.61,0,0,1-24.68-30.73,90,90,0,0,1-20.6-57.41V404.54c0-9,6.21-18.59,17.7-18.59A17.71,17.71,0,0,1,615,396.5a21.88,21.88,0,0,1,10.28,3.23V361.19a20.83,20.83,0,0,1,20.81-20.81,20.6,20.6,0,0,1,15,6.17,20.1,20.1,0,0,1,3.28,4.55,24.69,24.69,0,0,1,12.28,5.06,22.29,22.29,0,0,1,40.43-5,25.44,25.44,0,0,1,11.17,4.59,33.8,33.8,0,0,0-7.39-14A30.11,30.11,0,0,0,698.18,331.63Z"/>
        <path class="cls-2" d="M779.79,538.59l10.5-9.87V403.29A27.18,27.18,0,0,0,779,381.05a33.54,33.54,0,0,1,.82,7.36Z"/>
        <path class="cls-2" d="M775.42,628.64l75.16-81.54a9.44,9.44,0,0,0,1-11.49,41.81,41.81,0,0,0-41.48,9.32l-19.83,18.65V540.72l-11.88,11.17a4.47,4.47,0,0,1-3,1.19h-51a56.14,56.14,0,0,0-42.53,19.47l-6.62-5.72a64.9,64.9,0,0,1,49.15-22.5H771V388.41A23.14,23.14,0,0,0,768.16,377a25.15,25.15,0,0,0-28.24,25V379.18a29.93,29.93,0,0,0-1.48-9.24,20.77,20.77,0,0,0-9,17.13v103h-8.75V364.3a24.89,24.89,0,0,0-3.52-13.11,27.23,27.23,0,0,0-4.09-.31,26.86,26.86,0,0,0-26.86,26.86v-1.6a25.31,25.31,0,0,0-9.48-20,22.51,22.51,0,0,0-1,6.7V490.05h-8.75V361.26a21.5,21.5,0,0,0-2.51-10.16,27.45,27.45,0,0,0-3.43-.22,25.18,25.18,0,0,0-25.18,25.18v42.47a22.06,22.06,0,0,0-10.5-18.8v90.32h-8.75v-86.4A17.43,17.43,0,0,0,615,396.5c-.43,0-.86-.05-1.29-.05-13.24,0-22.08,10.85-22.08,23V600.59a94.27,94.27,0,0,0,10.1,42.54A88.33,88.33,0,0,0,670,675.5C714.86,675.5,745.39,661.92,775.42,628.64Z"/>
        <path class="cls-2" d="M868.25,545.74h0a42.57,42.57,0,0,0-6.41-5.22A18.14,18.14,0,0,1,857,553l-75.12,81.5c-15.41,17.08-30.4,28.75-47.15,36.68-18.54,8.77-39.7,13-64.71,13a96.13,96.13,0,0,1-43.58-10.39,92.06,92.06,0,0,0,58.45,20.89c50.46,0,80.9-17.55,108.65-48.31l75.12-81.5A13.84,13.84,0,0,0,868.25,545.74Z"/>
        <path class="cls-2" d="M729.41,366.09a29.77,29.77,0,0,1,5.07-4,27.09,27.09,0,0,0-6.17-6.29,34,34,0,0,1,1.1,8.52Z"/>
        <path class="cls-4" d="M666.94,490.05h8.75V362.86a22.51,22.51,0,0,1,1-6.7,24.69,24.69,0,0,0-12.28-5.06,21.5,21.5,0,0,1,2.51,10.16Z"/>
        <path class="cls-4" d="M616.57,490.05h8.75V399.73A21.88,21.88,0,0,0,615,396.5a17.43,17.43,0,0,1,1.53,7.15Z"/>
        <path class="cls-4" d="M720.66,490.05h8.75v-103a20.77,20.77,0,0,1,9-17.13,29.24,29.24,0,0,0-4-7.87,29.77,29.77,0,0,0-5.07,4V364.3a34,34,0,0,0-1.1-8.52,25.44,25.44,0,0,0-11.17-4.59,24.89,24.89,0,0,1,3.52,13.11Z"/>
        <path class="cls-4" d="M851.6,535.61a9.44,9.44,0,0,1-1,11.49l-75.16,81.54c-30,33.28-60.56,46.86-105.39,46.86a88.33,88.33,0,0,1-68.26-32.37,94.61,94.61,0,0,0,24.68,30.73A96.13,96.13,0,0,0,670,684.25c25,0,46.17-4.27,64.71-13,16.75-7.93,31.74-19.6,47.15-36.68L857,553a18.14,18.14,0,0,0,4.83-12.51A41.39,41.39,0,0,0,851.6,535.61Z"/>
        <path class="cls-4" d="M681.84,572.55a56.14,56.14,0,0,1,42.53-19.47h51a4.47,4.47,0,0,0,3-1.19l11.88-11.17v-12l-10.5,9.87V388.41a33.54,33.54,0,0,0-.82-7.36,23.93,23.93,0,0,0-10.81-4.1A23.14,23.14,0,0,1,771,388.41V544.33H724.37a64.9,64.9,0,0,0-49.15,22.5Z"/>
        <path class="cls-3" d="M194,569.59V537a33.43,33.43,0,0,0,6.13,5.25V530.71a24.45,24.45,0,0,1-6.13-16.2V476.66a24.53,24.53,0,0,1,40.79-18.39,33,33,0,0,1,17.06,5.55V439.28a26.39,26.39,0,0,1,43.39-20.21,35,35,0,0,1,21,8.63,26.72,26.72,0,0,1,41-8.63A35.35,35.35,0,0,1,378,427.45a22,22,0,0,1,34.93-6.08,30.62,30.62,0,0,1,12.65,2.88A30.76,30.76,0,0,0,371,422a35.48,35.48,0,0,0-61.86.44,35.16,35.16,0,0,0-66,16.84v14.9a33.29,33.29,0,0,0-57.85,22.48v92.93a110.12,110.12,0,0,0,40.13,85,110.19,110.19,0,0,1-21.34-41A100.91,100.91,0,0,1,194,569.59Z"/>
        <path class="cls-2" d="M452.84,543.23a57.24,57.24,0,0,0-9.52-16.43V452.13a30.82,30.82,0,0,0-17.77-27.88,30.62,30.62,0,0,1,2.89,13v74.67a57.1,57.1,0,0,1,13.16,36.43h0v0h0v0c0,72.48-59,131.45-131.45,131.45H295.51a109.8,109.8,0,0,1-70.16-25.26,110.11,110.11,0,0,0,85,40.13H325c72.48,0,131.44-59,131.44-131.45v0h0v0h0A56.9,56.9,0,0,0,452.84,543.23Z"/>
        <path class="cls-2" d="M200.1,491.53v39.18a24.53,24.53,0,0,0,43-16.2V476.66a24.45,24.45,0,0,0-8.31-18.39c-.45,0-.9,0-1.36,0A33.34,33.34,0,0,0,200.1,491.53Z"/>
        <path class="cls-2" d="M204,613.58a101.67,101.67,0,0,0,91.5,57.55h14.64a122.84,122.84,0,0,0,122.7-122.7v0h0v0h0v0h0A48.45,48.45,0,0,0,384.38,500H257.8a6,6,0,0,0-6,6v6.47a41.54,41.54,0,0,0,41.49,41.49h62.81v8.75h-.72a46.63,46.63,0,0,0-46.58,46.59V624.3h-8.75V609.23a55.33,55.33,0,0,1,25.5-46.59H293.31A50.32,50.32,0,0,1,247,531.8a33.25,33.25,0,0,1-46.87,10.43v42.23A110.15,110.15,0,0,0,204,613.58Z"/>
        <path class="cls-2" d="M385.84,436.87a35.86,35.86,0,0,0-7.87-9.42,21.8,21.8,0,0,0-2.32,9.8v54h8.73a57,57,0,0,1,35.31,12.22V437.25a22,22,0,0,0-6.79-15.88h-.35A30.78,30.78,0,0,0,385.84,436.87Z"/>
        <path class="cls-2" d="M324,437.31a35.36,35.36,0,0,0-7.75-9.61,26.53,26.53,0,0,0-2.82,11.92v51.59h53.5V439.62a26.7,26.7,0,0,0-9.64-20.55c-.74,0-1.48-.07-2.23-.07A35.53,35.53,0,0,0,324,437.31Z"/>
        <path class="cls-2" d="M258,454.16v14.9a33,33,0,0,0-6.13-5.24v12.84h0v15.81a14.73,14.73,0,0,1,6-1.26h46.85V439.28a26.35,26.35,0,0,0-9.44-20.21c-.69,0-1.39-.07-2.1-.07A35.2,35.2,0,0,0,258,454.16Z"/>
        <path class="cls-4" d="M310.15,679.88c72.48,0,131.45-59,131.45-131.45v0h0v0h0a57.1,57.1,0,0,0-13.16-36.43V437.25a30.62,30.62,0,0,0-2.89-13,30.62,30.62,0,0,0-12.65-2.88,22,22,0,0,1,6.79,15.88v66.18a57,57,0,0,0-35.31-12.22h-8.73v-54a21.8,21.8,0,0,1,2.32-9.8,35.35,35.35,0,0,0-20.71-8.38,26.7,26.7,0,0,1,9.64,20.55v51.59H313.4V439.62a26.53,26.53,0,0,1,2.82-11.92,35,35,0,0,0-21-8.63,26.35,26.35,0,0,1,9.44,20.21v51.93H257.8a14.73,14.73,0,0,0-6,1.26V476.66h0V463.82a33,33,0,0,0-17.06-5.55,24.45,24.45,0,0,1,8.31,18.39v37.85a24.53,24.53,0,0,1-43,16.2v11.52A33.25,33.25,0,0,0,247,531.8a50.32,50.32,0,0,0,46.34,30.84h32.26a55.33,55.33,0,0,0-25.5,46.59V624.3h8.75V609.23a46.63,46.63,0,0,1,46.58-46.59h.72v-8.75H293.31a41.54,41.54,0,0,1-41.49-41.49v-6.47a6,6,0,0,1,6-6H384.38a48.45,48.45,0,0,1,48.47,48.33h0v0h0v0h0v0a122.84,122.84,0,0,1-122.7,122.7H295.51A101.67,101.67,0,0,1,204,613.58a110.19,110.19,0,0,0,21.34,41,109.8,109.8,0,0,0,70.16,25.26Z"/>
    </g>
</svg>